<mxfile host="Electron" agent="Mozilla/5.0 (Windows NT 10.0; Win64; x64) AppleWebKit/537.36 (KHTML, like Gecko) draw.io/24.7.17 Chrome/128.0.6613.36 Electron/32.0.1 Safari/537.36" version="24.7.17" pages="2">
  <diagram id="0RwPZP3U4gSiddFwh0tU" name="Classes">
    <mxGraphModel dx="1434" dy="836" grid="1" gridSize="10" guides="1" tooltips="1" connect="1" arrows="1" fold="1" page="1" pageScale="1" pageWidth="850" pageHeight="1100" math="0" shadow="0">
      <root>
        <mxCell id="0" />
        <mxCell id="1" parent="0" />
        <mxCell id="IgfGezlQc4rkpgg-huQI-1" value="Cliente" style="swimlane;fontStyle=1;align=center;verticalAlign=top;childLayout=stackLayout;horizontal=1;startSize=26;horizontalStack=0;resizeParent=1;resizeParentMax=0;resizeLast=0;collapsible=1;marginBottom=0;whiteSpace=wrap;html=1;" parent="1" vertex="1">
          <mxGeometry x="10" y="247" width="160" height="178" as="geometry" />
        </mxCell>
        <mxCell id="IgfGezlQc4rkpgg-huQI-2" value="&lt;div&gt;idcliente: int&lt;/div&gt;&lt;div&gt;nome: string&lt;/div&gt;&lt;div&gt;datanascimento: date&lt;/div&gt;&lt;div&gt;cpf: string&lt;/div&gt;&lt;div&gt;email: string&lt;/div&gt;&lt;div&gt;telefone: string&lt;/div&gt;&lt;div&gt;datecreated: datetime&lt;/div&gt;&lt;div&gt;createdby: datetime&lt;/div&gt;&lt;div&gt;orcamentos: array&lt;/div&gt;" style="text;strokeColor=none;fillColor=none;align=left;verticalAlign=top;spacingLeft=4;spacingRight=4;overflow=hidden;rotatable=0;points=[[0,0.5],[1,0.5]];portConstraint=eastwest;whiteSpace=wrap;html=1;" parent="IgfGezlQc4rkpgg-huQI-1" vertex="1">
          <mxGeometry y="26" width="160" height="144" as="geometry" />
        </mxCell>
        <mxCell id="IgfGezlQc4rkpgg-huQI-3" value="" style="line;strokeWidth=1;fillColor=none;align=left;verticalAlign=middle;spacingTop=-1;spacingLeft=3;spacingRight=3;rotatable=0;labelPosition=right;points=[];portConstraint=eastwest;strokeColor=inherit;" parent="IgfGezlQc4rkpgg-huQI-1" vertex="1">
          <mxGeometry y="170" width="160" height="8" as="geometry" />
        </mxCell>
        <mxCell id="IgfGezlQc4rkpgg-huQI-6" value="Lateralidade" style="swimlane;fontStyle=1;align=center;verticalAlign=top;childLayout=stackLayout;horizontal=1;startSize=26;horizontalStack=0;resizeParent=1;resizeParentMax=0;resizeLast=0;collapsible=1;marginBottom=0;whiteSpace=wrap;html=1;" parent="1" vertex="1">
          <mxGeometry x="390" y="50" width="160" height="78" as="geometry" />
        </mxCell>
        <mxCell id="IgfGezlQc4rkpgg-huQI-7" value="&lt;div&gt;idlateralidade: int&lt;/div&gt;&lt;div&gt;lateralidade: string&lt;/div&gt;" style="text;strokeColor=none;fillColor=none;align=left;verticalAlign=top;spacingLeft=4;spacingRight=4;overflow=hidden;rotatable=0;points=[[0,0.5],[1,0.5]];portConstraint=eastwest;whiteSpace=wrap;html=1;" parent="IgfGezlQc4rkpgg-huQI-6" vertex="1">
          <mxGeometry y="26" width="160" height="44" as="geometry" />
        </mxCell>
        <mxCell id="IgfGezlQc4rkpgg-huQI-8" value="" style="line;strokeWidth=1;fillColor=none;align=left;verticalAlign=middle;spacingTop=-1;spacingLeft=3;spacingRight=3;rotatable=0;labelPosition=right;points=[];portConstraint=eastwest;strokeColor=inherit;" parent="IgfGezlQc4rkpgg-huQI-6" vertex="1">
          <mxGeometry y="70" width="160" height="8" as="geometry" />
        </mxCell>
        <mxCell id="IgfGezlQc4rkpgg-huQI-10" value="Medico" style="swimlane;fontStyle=1;align=center;verticalAlign=top;childLayout=stackLayout;horizontal=1;startSize=26;horizontalStack=0;resizeParent=1;resizeParentMax=0;resizeLast=0;collapsible=1;marginBottom=0;whiteSpace=wrap;html=1;" parent="1" vertex="1">
          <mxGeometry x="620" y="190" width="160" height="98" as="geometry" />
        </mxCell>
        <mxCell id="IgfGezlQc4rkpgg-huQI-11" value="&lt;div&gt;idmedico: int&lt;/div&gt;&lt;div&gt;nomemedico: string&lt;/div&gt;&lt;div&gt;ativo: string&lt;/div&gt;" style="text;strokeColor=none;fillColor=none;align=left;verticalAlign=top;spacingLeft=4;spacingRight=4;overflow=hidden;rotatable=0;points=[[0,0.5],[1,0.5]];portConstraint=eastwest;whiteSpace=wrap;html=1;" parent="IgfGezlQc4rkpgg-huQI-10" vertex="1">
          <mxGeometry y="26" width="160" height="64" as="geometry" />
        </mxCell>
        <mxCell id="IgfGezlQc4rkpgg-huQI-12" value="" style="line;strokeWidth=1;fillColor=none;align=left;verticalAlign=middle;spacingTop=-1;spacingLeft=3;spacingRight=3;rotatable=0;labelPosition=right;points=[];portConstraint=eastwest;strokeColor=inherit;" parent="IgfGezlQc4rkpgg-huQI-10" vertex="1">
          <mxGeometry y="90" width="160" height="8" as="geometry" />
        </mxCell>
        <mxCell id="IgfGezlQc4rkpgg-huQI-14" value="Opme" style="swimlane;fontStyle=1;align=center;verticalAlign=top;childLayout=stackLayout;horizontal=1;startSize=26;horizontalStack=0;resizeParent=1;resizeParentMax=0;resizeLast=0;collapsible=1;marginBottom=0;whiteSpace=wrap;html=1;" parent="1" vertex="1">
          <mxGeometry x="660" y="350" width="160" height="78" as="geometry" />
        </mxCell>
        <mxCell id="IgfGezlQc4rkpgg-huQI-15" value="&lt;div&gt;idopme: int&lt;/div&gt;&lt;div&gt;opme: string&lt;/div&gt;" style="text;strokeColor=none;fillColor=none;align=left;verticalAlign=top;spacingLeft=4;spacingRight=4;overflow=hidden;rotatable=0;points=[[0,0.5],[1,0.5]];portConstraint=eastwest;whiteSpace=wrap;html=1;" parent="IgfGezlQc4rkpgg-huQI-14" vertex="1">
          <mxGeometry y="26" width="160" height="44" as="geometry" />
        </mxCell>
        <mxCell id="IgfGezlQc4rkpgg-huQI-16" value="" style="line;strokeWidth=1;fillColor=none;align=left;verticalAlign=middle;spacingTop=-1;spacingLeft=3;spacingRight=3;rotatable=0;labelPosition=right;points=[];portConstraint=eastwest;strokeColor=inherit;" parent="IgfGezlQc4rkpgg-huQI-14" vertex="1">
          <mxGeometry y="70" width="160" height="8" as="geometry" />
        </mxCell>
        <mxCell id="IgfGezlQc4rkpgg-huQI-19" value="Orcamento" style="swimlane;fontStyle=1;align=center;verticalAlign=top;childLayout=stackLayout;horizontal=1;startSize=26;horizontalStack=0;resizeParent=1;resizeParentMax=0;resizeLast=0;collapsible=1;marginBottom=0;whiteSpace=wrap;html=1;swimlaneLine=1;strokeColor=default;" parent="1" vertex="1">
          <mxGeometry x="300" y="360" width="160" height="444" as="geometry" />
        </mxCell>
        <mxCell id="IgfGezlQc4rkpgg-huQI-20" value="&lt;div&gt;cod: int&lt;/div&gt;&lt;div&gt;data: date&lt;/div&gt;&lt;div&gt;idcliente: int&lt;/div&gt;&lt;div&gt;valoroperacao: float&lt;/div&gt;&lt;div&gt;idtipopagamento: int&lt;/div&gt;&lt;div&gt;idservico: int&lt;/div&gt;&lt;div&gt;idprocedimento: int&lt;/div&gt;&lt;div&gt;datarealizacao: date&lt;/div&gt;&lt;div&gt;idmedico: int&lt;/div&gt;&lt;div&gt;idlateralidade: int&lt;/div&gt;&lt;div&gt;idopme: int&amp;nbsp;&lt;/div&gt;&lt;div&gt;idstatus: int&lt;/div&gt;&lt;div&gt;datecreated: datetime&lt;/div&gt;&lt;div&gt;dateupdate: datetime&lt;/div&gt;&lt;div&gt;datedeleted: datetime&lt;/div&gt;&lt;div&gt;craetedby: int&lt;/div&gt;&lt;div&gt;updatedby: int&lt;/div&gt;&lt;div&gt;deletedby: int&lt;/div&gt;&lt;div&gt;obs: string&lt;/div&gt;&lt;div&gt;dateclosed: datetime&lt;/div&gt;&lt;div&gt;caixaok: string&lt;/div&gt;&lt;div&gt;caixaokby: int&lt;/div&gt;&lt;div&gt;caixaokdatetime: datetime&lt;/div&gt;&lt;div&gt;tudook: string&lt;/div&gt;&lt;div&gt;tudookpor: int&lt;/div&gt;&lt;div&gt;tudookdatetime: datetime&lt;/div&gt;" style="text;strokeColor=none;fillColor=none;align=left;verticalAlign=top;spacingLeft=4;spacingRight=4;overflow=hidden;rotatable=0;points=[[0,0.5],[1,0.5]];portConstraint=eastwest;whiteSpace=wrap;html=1;" parent="IgfGezlQc4rkpgg-huQI-19" vertex="1">
          <mxGeometry y="26" width="160" height="384" as="geometry" />
        </mxCell>
        <mxCell id="IgfGezlQc4rkpgg-huQI-21" value="" style="line;strokeWidth=1;fillColor=none;align=left;verticalAlign=middle;spacingTop=-1;spacingLeft=3;spacingRight=3;rotatable=0;labelPosition=right;points=[];portConstraint=eastwest;strokeColor=inherit;" parent="IgfGezlQc4rkpgg-huQI-19" vertex="1">
          <mxGeometry y="410" width="160" height="8" as="geometry" />
        </mxCell>
        <mxCell id="IgfGezlQc4rkpgg-huQI-22" value="+ method(type): type" style="text;strokeColor=none;fillColor=none;align=left;verticalAlign=top;spacingLeft=4;spacingRight=4;overflow=hidden;rotatable=0;points=[[0,0.5],[1,0.5]];portConstraint=eastwest;whiteSpace=wrap;html=1;allowArrows=1;noLabel=0;absoluteArcSize=0;collapsible=0;shadow=0;imageAspect=1;pointerEvents=1;comic=0;portConstraintRotation=0;snapToPoint=0;fixDash=0;" parent="IgfGezlQc4rkpgg-huQI-19" vertex="1">
          <mxGeometry y="418" width="160" height="26" as="geometry" />
        </mxCell>
        <mxCell id="IgfGezlQc4rkpgg-huQI-23" value="" style="endArrow=none;html=1;edgeStyle=orthogonalEdgeStyle;rounded=0;exitX=0;exitY=0.5;exitDx=0;exitDy=0;entryX=1.031;entryY=0.448;entryDx=0;entryDy=0;entryPerimeter=0;" parent="1" source="IgfGezlQc4rkpgg-huQI-15" target="IgfGezlQc4rkpgg-huQI-20" edge="1">
          <mxGeometry relative="1" as="geometry">
            <mxPoint x="469.99999999999994" y="541.0020000000001" as="sourcePoint" />
            <mxPoint x="400" y="547" as="targetPoint" />
          </mxGeometry>
        </mxCell>
        <mxCell id="IgfGezlQc4rkpgg-huQI-24" value="1" style="edgeLabel;resizable=0;html=1;align=left;verticalAlign=bottom;" parent="IgfGezlQc4rkpgg-huQI-23" connectable="0" vertex="1">
          <mxGeometry x="-1" relative="1" as="geometry">
            <mxPoint x="-11" as="offset" />
          </mxGeometry>
        </mxCell>
        <mxCell id="IgfGezlQc4rkpgg-huQI-25" value="0 .. *" style="edgeLabel;resizable=0;html=1;align=right;verticalAlign=bottom;" parent="IgfGezlQc4rkpgg-huQI-23" connectable="0" vertex="1">
          <mxGeometry x="1" relative="1" as="geometry">
            <mxPoint x="29" as="offset" />
          </mxGeometry>
        </mxCell>
        <mxCell id="IgfGezlQc4rkpgg-huQI-26" value="Procedimento" style="swimlane;fontStyle=1;align=center;verticalAlign=top;childLayout=stackLayout;horizontal=1;startSize=26;horizontalStack=0;resizeParent=1;resizeParentMax=0;resizeLast=0;collapsible=1;marginBottom=0;whiteSpace=wrap;html=1;" parent="1" vertex="1">
          <mxGeometry x="630" y="550" width="160" height="78" as="geometry" />
        </mxCell>
        <mxCell id="IgfGezlQc4rkpgg-huQI-27" value="&lt;div&gt;idprocedimento: int&lt;/div&gt;&lt;div&gt;procedimento: string&lt;/div&gt;" style="text;strokeColor=none;fillColor=none;align=left;verticalAlign=top;spacingLeft=4;spacingRight=4;overflow=hidden;rotatable=0;points=[[0,0.5],[1,0.5]];portConstraint=eastwest;whiteSpace=wrap;html=1;" parent="IgfGezlQc4rkpgg-huQI-26" vertex="1">
          <mxGeometry y="26" width="160" height="44" as="geometry" />
        </mxCell>
        <mxCell id="IgfGezlQc4rkpgg-huQI-28" value="" style="line;strokeWidth=1;fillColor=none;align=left;verticalAlign=middle;spacingTop=-1;spacingLeft=3;spacingRight=3;rotatable=0;labelPosition=right;points=[];portConstraint=eastwest;strokeColor=inherit;" parent="IgfGezlQc4rkpgg-huQI-26" vertex="1">
          <mxGeometry y="70" width="160" height="8" as="geometry" />
        </mxCell>
        <mxCell id="IgfGezlQc4rkpgg-huQI-30" value="Servico" style="swimlane;fontStyle=1;align=center;verticalAlign=top;childLayout=stackLayout;horizontal=1;startSize=26;horizontalStack=0;resizeParent=1;resizeParentMax=0;resizeLast=0;collapsible=1;marginBottom=0;whiteSpace=wrap;html=1;" parent="1" vertex="1">
          <mxGeometry x="10" y="520" width="160" height="78" as="geometry" />
        </mxCell>
        <mxCell id="IgfGezlQc4rkpgg-huQI-31" value="&lt;div&gt;idservico: int&lt;/div&gt;&lt;div&gt;servico: string&lt;/div&gt;" style="text;strokeColor=none;fillColor=none;align=left;verticalAlign=top;spacingLeft=4;spacingRight=4;overflow=hidden;rotatable=0;points=[[0,0.5],[1,0.5]];portConstraint=eastwest;whiteSpace=wrap;html=1;" parent="IgfGezlQc4rkpgg-huQI-30" vertex="1">
          <mxGeometry y="26" width="160" height="44" as="geometry" />
        </mxCell>
        <mxCell id="IgfGezlQc4rkpgg-huQI-32" value="" style="line;strokeWidth=1;fillColor=none;align=left;verticalAlign=middle;spacingTop=-1;spacingLeft=3;spacingRight=3;rotatable=0;labelPosition=right;points=[];portConstraint=eastwest;strokeColor=inherit;" parent="IgfGezlQc4rkpgg-huQI-30" vertex="1">
          <mxGeometry y="70" width="160" height="8" as="geometry" />
        </mxCell>
        <mxCell id="IgfGezlQc4rkpgg-huQI-38" value="Status" style="swimlane;fontStyle=1;align=center;verticalAlign=top;childLayout=stackLayout;horizontal=1;startSize=26;horizontalStack=0;resizeParent=1;resizeParentMax=0;resizeLast=0;collapsible=1;marginBottom=0;whiteSpace=wrap;html=1;" parent="1" vertex="1">
          <mxGeometry x="20" y="870" width="160" height="78" as="geometry" />
        </mxCell>
        <mxCell id="IgfGezlQc4rkpgg-huQI-39" value="&lt;div&gt;idstatus: int&lt;/div&gt;&lt;div&gt;destatus: string&lt;/div&gt;" style="text;strokeColor=none;fillColor=none;align=left;verticalAlign=top;spacingLeft=4;spacingRight=4;overflow=hidden;rotatable=0;points=[[0,0.5],[1,0.5]];portConstraint=eastwest;whiteSpace=wrap;html=1;" parent="IgfGezlQc4rkpgg-huQI-38" vertex="1">
          <mxGeometry y="26" width="160" height="44" as="geometry" />
        </mxCell>
        <mxCell id="IgfGezlQc4rkpgg-huQI-40" value="" style="line;strokeWidth=1;fillColor=none;align=left;verticalAlign=middle;spacingTop=-1;spacingLeft=3;spacingRight=3;rotatable=0;labelPosition=right;points=[];portConstraint=eastwest;strokeColor=inherit;" parent="IgfGezlQc4rkpgg-huQI-38" vertex="1">
          <mxGeometry y="70" width="160" height="8" as="geometry" />
        </mxCell>
        <mxCell id="IgfGezlQc4rkpgg-huQI-42" value="TipoPagamento" style="swimlane;fontStyle=1;align=center;verticalAlign=top;childLayout=stackLayout;horizontal=1;startSize=26;horizontalStack=0;resizeParent=1;resizeParentMax=0;resizeLast=0;collapsible=1;marginBottom=0;whiteSpace=wrap;html=1;" parent="1" vertex="1">
          <mxGeometry x="570" y="810" width="160" height="78" as="geometry" />
        </mxCell>
        <mxCell id="IgfGezlQc4rkpgg-huQI-43" value="&lt;div&gt;idtipopagamento: int&lt;/div&gt;&lt;div&gt;tipopagamento: string&lt;/div&gt;" style="text;strokeColor=none;fillColor=none;align=left;verticalAlign=top;spacingLeft=4;spacingRight=4;overflow=hidden;rotatable=0;points=[[0,0.5],[1,0.5]];portConstraint=eastwest;whiteSpace=wrap;html=1;" parent="IgfGezlQc4rkpgg-huQI-42" vertex="1">
          <mxGeometry y="26" width="160" height="44" as="geometry" />
        </mxCell>
        <mxCell id="IgfGezlQc4rkpgg-huQI-44" value="" style="line;strokeWidth=1;fillColor=none;align=left;verticalAlign=middle;spacingTop=-1;spacingLeft=3;spacingRight=3;rotatable=0;labelPosition=right;points=[];portConstraint=eastwest;strokeColor=inherit;" parent="IgfGezlQc4rkpgg-huQI-42" vertex="1">
          <mxGeometry y="70" width="160" height="8" as="geometry" />
        </mxCell>
        <mxCell id="IgfGezlQc4rkpgg-huQI-46" value="Usuario" style="swimlane;fontStyle=1;align=center;verticalAlign=top;childLayout=stackLayout;horizontal=1;startSize=26;horizontalStack=0;resizeParent=1;resizeParentMax=0;resizeLast=0;collapsible=1;marginBottom=0;whiteSpace=wrap;html=1;" parent="1" vertex="1">
          <mxGeometry x="140" y="40" width="160" height="148" as="geometry" />
        </mxCell>
        <mxCell id="IgfGezlQc4rkpgg-huQI-47" value="&lt;div&gt;idusuario: int&lt;/div&gt;&lt;div&gt;loginusuario: string&lt;/div&gt;&lt;div&gt;nomeusuario: string&lt;/div&gt;&lt;div&gt;senhausuario: string&lt;/div&gt;&lt;div&gt;ativo: string&lt;/div&gt;&lt;div&gt;datecreated: datetime&lt;/div&gt;&lt;div&gt;dateupdated: datetime&lt;/div&gt;" style="text;strokeColor=none;fillColor=none;align=left;verticalAlign=top;spacingLeft=4;spacingRight=4;overflow=hidden;rotatable=0;points=[[0,0.5],[1,0.5]];portConstraint=eastwest;whiteSpace=wrap;html=1;" parent="IgfGezlQc4rkpgg-huQI-46" vertex="1">
          <mxGeometry y="26" width="160" height="114" as="geometry" />
        </mxCell>
        <mxCell id="IgfGezlQc4rkpgg-huQI-48" value="" style="line;strokeWidth=1;fillColor=none;align=left;verticalAlign=middle;spacingTop=-1;spacingLeft=3;spacingRight=3;rotatable=0;labelPosition=right;points=[];portConstraint=eastwest;strokeColor=inherit;" parent="IgfGezlQc4rkpgg-huQI-46" vertex="1">
          <mxGeometry y="140" width="160" height="8" as="geometry" />
        </mxCell>
        <mxCell id="IgfGezlQc4rkpgg-huQI-50" value="" style="endArrow=none;html=1;edgeStyle=orthogonalEdgeStyle;rounded=0;entryX=0.994;entryY=0.25;entryDx=0;entryDy=0;entryPerimeter=0;exitX=0;exitY=0.5;exitDx=0;exitDy=0;" parent="1" source="IgfGezlQc4rkpgg-huQI-11" target="IgfGezlQc4rkpgg-huQI-20" edge="1">
          <mxGeometry relative="1" as="geometry">
            <mxPoint x="440" y="300" as="sourcePoint" />
            <mxPoint x="600" y="300" as="targetPoint" />
          </mxGeometry>
        </mxCell>
        <mxCell id="IgfGezlQc4rkpgg-huQI-51" value="1" style="edgeLabel;resizable=0;html=1;align=left;verticalAlign=bottom;" parent="IgfGezlQc4rkpgg-huQI-50" connectable="0" vertex="1">
          <mxGeometry x="-1" relative="1" as="geometry">
            <mxPoint x="-12" as="offset" />
          </mxGeometry>
        </mxCell>
        <mxCell id="IgfGezlQc4rkpgg-huQI-52" value="0..*" style="edgeLabel;resizable=0;html=1;align=right;verticalAlign=bottom;" parent="IgfGezlQc4rkpgg-huQI-50" connectable="0" vertex="1">
          <mxGeometry x="1" relative="1" as="geometry">
            <mxPoint x="21" y="-2" as="offset" />
          </mxGeometry>
        </mxCell>
        <mxCell id="IgfGezlQc4rkpgg-huQI-54" value="" style="endArrow=none;html=1;edgeStyle=orthogonalEdgeStyle;rounded=0;entryX=0.481;entryY=0.962;entryDx=0;entryDy=0;entryPerimeter=0;exitX=0.025;exitY=0.932;exitDx=0;exitDy=0;exitPerimeter=0;" parent="1" source="IgfGezlQc4rkpgg-huQI-43" target="IgfGezlQc4rkpgg-huQI-22" edge="1">
          <mxGeometry relative="1" as="geometry">
            <mxPoint x="310" y="850" as="sourcePoint" />
            <mxPoint x="470" y="850" as="targetPoint" />
          </mxGeometry>
        </mxCell>
        <mxCell id="IgfGezlQc4rkpgg-huQI-55" value="1" style="edgeLabel;resizable=0;html=1;align=left;verticalAlign=bottom;" parent="IgfGezlQc4rkpgg-huQI-54" connectable="0" vertex="1">
          <mxGeometry x="-1" relative="1" as="geometry">
            <mxPoint x="-15" as="offset" />
          </mxGeometry>
        </mxCell>
        <mxCell id="IgfGezlQc4rkpgg-huQI-56" value="0...*" style="edgeLabel;resizable=0;html=1;align=right;verticalAlign=bottom;" parent="IgfGezlQc4rkpgg-huQI-54" connectable="0" vertex="1">
          <mxGeometry x="1" relative="1" as="geometry">
            <mxPoint x="25" y="17" as="offset" />
          </mxGeometry>
        </mxCell>
        <mxCell id="IgfGezlQc4rkpgg-huQI-57" value="" style="endArrow=none;html=1;edgeStyle=orthogonalEdgeStyle;rounded=0;entryX=0.5;entryY=0;entryDx=0;entryDy=0;exitX=0.5;exitY=1;exitDx=0;exitDy=0;" parent="1" source="IgfGezlQc4rkpgg-huQI-46" target="IgfGezlQc4rkpgg-huQI-19" edge="1">
          <mxGeometry relative="1" as="geometry">
            <mxPoint x="214.07999999999993" y="214" as="sourcePoint" />
            <mxPoint x="450" y="310" as="targetPoint" />
          </mxGeometry>
        </mxCell>
        <mxCell id="IgfGezlQc4rkpgg-huQI-58" value="1...*" style="edgeLabel;resizable=0;html=1;align=left;verticalAlign=bottom;" parent="IgfGezlQc4rkpgg-huQI-57" connectable="0" vertex="1">
          <mxGeometry x="-1" relative="1" as="geometry">
            <mxPoint y="17" as="offset" />
          </mxGeometry>
        </mxCell>
        <mxCell id="IgfGezlQc4rkpgg-huQI-59" value="0...1" style="edgeLabel;resizable=0;html=1;align=right;verticalAlign=bottom;" parent="IgfGezlQc4rkpgg-huQI-57" connectable="0" vertex="1">
          <mxGeometry x="1" relative="1" as="geometry" />
        </mxCell>
        <mxCell id="IgfGezlQc4rkpgg-huQI-60" value="" style="endArrow=none;html=1;edgeStyle=orthogonalEdgeStyle;rounded=0;entryX=0.019;entryY=0.039;entryDx=0;entryDy=0;entryPerimeter=0;exitX=1;exitY=0.736;exitDx=0;exitDy=0;exitPerimeter=0;" parent="1" source="IgfGezlQc4rkpgg-huQI-2" target="IgfGezlQc4rkpgg-huQI-20" edge="1">
          <mxGeometry relative="1" as="geometry">
            <mxPoint x="170" y="438" as="sourcePoint" />
            <mxPoint x="250" y="340" as="targetPoint" />
          </mxGeometry>
        </mxCell>
        <mxCell id="IgfGezlQc4rkpgg-huQI-61" value="1" style="edgeLabel;resizable=0;html=1;align=left;verticalAlign=bottom;" parent="IgfGezlQc4rkpgg-huQI-60" connectable="0" vertex="1">
          <mxGeometry x="-1" relative="1" as="geometry" />
        </mxCell>
        <mxCell id="IgfGezlQc4rkpgg-huQI-62" value="0...*" style="edgeLabel;resizable=0;html=1;align=right;verticalAlign=bottom;" parent="IgfGezlQc4rkpgg-huQI-60" connectable="0" vertex="1">
          <mxGeometry x="1" relative="1" as="geometry">
            <mxPoint x="-4" as="offset" />
          </mxGeometry>
        </mxCell>
        <mxCell id="IgfGezlQc4rkpgg-huQI-63" value="" style="endArrow=none;html=1;edgeStyle=orthogonalEdgeStyle;rounded=0;entryX=-0.012;entryY=0.854;entryDx=0;entryDy=0;entryPerimeter=0;exitX=1;exitY=0.5;exitDx=0;exitDy=0;" parent="1" source="IgfGezlQc4rkpgg-huQI-39" target="IgfGezlQc4rkpgg-huQI-20" edge="1">
          <mxGeometry relative="1" as="geometry">
            <mxPoint x="90" y="730" as="sourcePoint" />
            <mxPoint x="250" y="730" as="targetPoint" />
          </mxGeometry>
        </mxCell>
        <mxCell id="IgfGezlQc4rkpgg-huQI-64" value="1" style="edgeLabel;resizable=0;html=1;align=left;verticalAlign=bottom;" parent="IgfGezlQc4rkpgg-huQI-63" connectable="0" vertex="1">
          <mxGeometry x="-1" relative="1" as="geometry" />
        </mxCell>
        <mxCell id="IgfGezlQc4rkpgg-huQI-65" value="0...*" style="edgeLabel;resizable=0;html=1;align=right;verticalAlign=bottom;" parent="IgfGezlQc4rkpgg-huQI-63" connectable="0" vertex="1">
          <mxGeometry x="1" relative="1" as="geometry" />
        </mxCell>
        <mxCell id="IgfGezlQc4rkpgg-huQI-66" value="" style="endArrow=none;html=1;edgeStyle=orthogonalEdgeStyle;rounded=0;entryX=0;entryY=0.5;entryDx=0;entryDy=0;exitX=1;exitY=0.5;exitDx=0;exitDy=0;" parent="1" source="IgfGezlQc4rkpgg-huQI-31" target="IgfGezlQc4rkpgg-huQI-20" edge="1">
          <mxGeometry relative="1" as="geometry">
            <mxPoint x="90" y="670" as="sourcePoint" />
            <mxPoint x="250" y="670" as="targetPoint" />
          </mxGeometry>
        </mxCell>
        <mxCell id="IgfGezlQc4rkpgg-huQI-67" value="1" style="edgeLabel;resizable=0;html=1;align=left;verticalAlign=bottom;" parent="IgfGezlQc4rkpgg-huQI-66" connectable="0" vertex="1">
          <mxGeometry x="-1" relative="1" as="geometry" />
        </mxCell>
        <mxCell id="IgfGezlQc4rkpgg-huQI-68" value="0...*" style="edgeLabel;resizable=0;html=1;align=right;verticalAlign=bottom;" parent="IgfGezlQc4rkpgg-huQI-66" connectable="0" vertex="1">
          <mxGeometry x="1" relative="1" as="geometry" />
        </mxCell>
        <mxCell id="IgfGezlQc4rkpgg-huQI-69" value="" style="endArrow=none;html=1;edgeStyle=orthogonalEdgeStyle;rounded=0;exitX=0.5;exitY=1;exitDx=0;exitDy=0;entryX=0.75;entryY=0;entryDx=0;entryDy=0;" parent="1" source="IgfGezlQc4rkpgg-huQI-6" target="IgfGezlQc4rkpgg-huQI-19" edge="1">
          <mxGeometry relative="1" as="geometry">
            <mxPoint x="470" y="154" as="sourcePoint" />
            <mxPoint x="550" y="200" as="targetPoint" />
          </mxGeometry>
        </mxCell>
        <mxCell id="IgfGezlQc4rkpgg-huQI-70" value="1" style="edgeLabel;resizable=0;html=1;align=left;verticalAlign=bottom;" parent="IgfGezlQc4rkpgg-huQI-69" connectable="0" vertex="1">
          <mxGeometry x="-1" relative="1" as="geometry">
            <mxPoint y="18" as="offset" />
          </mxGeometry>
        </mxCell>
        <mxCell id="IgfGezlQc4rkpgg-huQI-71" value="0...*" style="edgeLabel;resizable=0;html=1;align=right;verticalAlign=bottom;" parent="IgfGezlQc4rkpgg-huQI-69" connectable="0" vertex="1">
          <mxGeometry x="1" relative="1" as="geometry">
            <mxPoint x="-1" as="offset" />
          </mxGeometry>
        </mxCell>
      </root>
    </mxGraphModel>
  </diagram>
  <diagram id="j2r0M351Fmkbd76Wn3_p" name="UML Use Cases">
    <mxGraphModel dx="1434" dy="836" grid="1" gridSize="10" guides="1" tooltips="1" connect="1" arrows="1" fold="1" page="1" pageScale="1" pageWidth="827" pageHeight="1169" background="none" math="0" shadow="0">
      <root>
        <mxCell id="0" />
        <mxCell id="1" parent="0" />
        <mxCell id="uVIDQv2vTQbWgJyryutx-2" value="Sistema de Orçamentos Oftamológicos - Cadastros gerais" style="rounded=0;whiteSpace=wrap;html=1;fillColor=none;verticalAlign=top;fontStyle=1;align=right;" parent="1" vertex="1">
          <mxGeometry x="110" y="10" width="580" height="991" as="geometry" />
        </mxCell>
        <mxCell id="5HIn2BvhAGyxZws0j2YR-12" style="edgeStyle=orthogonalEdgeStyle;rounded=0;orthogonalLoop=1;jettySize=auto;html=1;exitX=1;exitY=0.3333333333333333;exitDx=0;exitDy=0;exitPerimeter=0;entryX=0;entryY=0.5;entryDx=0;entryDy=0;endArrow=none;endFill=0;" parent="1" source="5HIn2BvhAGyxZws0j2YR-1" target="5HIn2BvhAGyxZws0j2YR-5" edge="1">
          <mxGeometry relative="1" as="geometry" />
        </mxCell>
        <mxCell id="5HIn2BvhAGyxZws0j2YR-13" style="edgeStyle=orthogonalEdgeStyle;rounded=0;orthogonalLoop=1;jettySize=auto;html=1;exitX=1;exitY=0.3333333333333333;exitDx=0;exitDy=0;exitPerimeter=0;entryX=0;entryY=0.5;entryDx=0;entryDy=0;endArrow=none;endFill=0;" parent="1" source="5HIn2BvhAGyxZws0j2YR-1" target="5HIn2BvhAGyxZws0j2YR-6" edge="1">
          <mxGeometry relative="1" as="geometry" />
        </mxCell>
        <mxCell id="5HIn2BvhAGyxZws0j2YR-14" style="edgeStyle=orthogonalEdgeStyle;rounded=0;orthogonalLoop=1;jettySize=auto;html=1;exitX=1;exitY=0.3333333333333333;exitDx=0;exitDy=0;exitPerimeter=0;entryX=0;entryY=0.5;entryDx=0;entryDy=0;endArrow=none;endFill=0;" parent="1" source="5HIn2BvhAGyxZws0j2YR-1" target="5HIn2BvhAGyxZws0j2YR-7" edge="1">
          <mxGeometry relative="1" as="geometry" />
        </mxCell>
        <mxCell id="5HIn2BvhAGyxZws0j2YR-15" style="edgeStyle=orthogonalEdgeStyle;rounded=0;orthogonalLoop=1;jettySize=auto;html=1;exitX=1;exitY=0.3333333333333333;exitDx=0;exitDy=0;exitPerimeter=0;entryX=0;entryY=0.5;entryDx=0;entryDy=0;endArrow=none;endFill=0;" parent="1" source="5HIn2BvhAGyxZws0j2YR-1" target="5HIn2BvhAGyxZws0j2YR-8" edge="1">
          <mxGeometry relative="1" as="geometry" />
        </mxCell>
        <mxCell id="5HIn2BvhAGyxZws0j2YR-16" style="edgeStyle=orthogonalEdgeStyle;rounded=0;orthogonalLoop=1;jettySize=auto;html=1;exitX=1;exitY=0.3333333333333333;exitDx=0;exitDy=0;exitPerimeter=0;entryX=0;entryY=0.5;entryDx=0;entryDy=0;endArrow=none;endFill=0;" parent="1" source="5HIn2BvhAGyxZws0j2YR-1" target="5HIn2BvhAGyxZws0j2YR-9" edge="1">
          <mxGeometry relative="1" as="geometry" />
        </mxCell>
        <mxCell id="5HIn2BvhAGyxZws0j2YR-17" style="edgeStyle=orthogonalEdgeStyle;rounded=0;orthogonalLoop=1;jettySize=auto;html=1;exitX=1;exitY=0.3333333333333333;exitDx=0;exitDy=0;exitPerimeter=0;entryX=0;entryY=0.5;entryDx=0;entryDy=0;endArrow=none;endFill=0;" parent="1" source="5HIn2BvhAGyxZws0j2YR-1" target="5HIn2BvhAGyxZws0j2YR-10" edge="1">
          <mxGeometry relative="1" as="geometry" />
        </mxCell>
        <mxCell id="5HIn2BvhAGyxZws0j2YR-19" style="edgeStyle=orthogonalEdgeStyle;rounded=0;orthogonalLoop=1;jettySize=auto;html=1;exitX=1;exitY=0.3333333333333333;exitDx=0;exitDy=0;exitPerimeter=0;entryX=0;entryY=0.5;entryDx=0;entryDy=0;endArrow=none;endFill=0;" parent="1" source="5HIn2BvhAGyxZws0j2YR-1" target="5HIn2BvhAGyxZws0j2YR-18" edge="1">
          <mxGeometry relative="1" as="geometry" />
        </mxCell>
        <mxCell id="5HIn2BvhAGyxZws0j2YR-26" style="edgeStyle=orthogonalEdgeStyle;rounded=0;orthogonalLoop=1;jettySize=auto;html=1;exitX=1;exitY=0.3333333333333333;exitDx=0;exitDy=0;exitPerimeter=0;entryX=0;entryY=0.5;entryDx=0;entryDy=0;endArrow=none;endFill=0;" parent="1" target="5HIn2BvhAGyxZws0j2YR-25" edge="1">
          <mxGeometry relative="1" as="geometry">
            <mxPoint x="89" y="299" as="sourcePoint" />
            <mxPoint x="209" y="59" as="targetPoint" />
          </mxGeometry>
        </mxCell>
        <mxCell id="5HIn2BvhAGyxZws0j2YR-1" value="Usuário" style="shape=umlActor;verticalLabelPosition=bottom;verticalAlign=top;html=1;" parent="1" vertex="1">
          <mxGeometry x="50" y="279" width="30" height="60" as="geometry" />
        </mxCell>
        <mxCell id="5HIn2BvhAGyxZws0j2YR-4" value="Realizar Login" style="ellipse;whiteSpace=wrap;html=1;" parent="1" vertex="1">
          <mxGeometry x="200" y="118" width="140" height="50" as="geometry" />
        </mxCell>
        <mxCell id="5HIn2BvhAGyxZws0j2YR-5" value="Cadastrar Orçamento" style="ellipse;whiteSpace=wrap;html=1;" parent="1" vertex="1">
          <mxGeometry x="200" y="192" width="140" height="50" as="geometry" />
        </mxCell>
        <mxCell id="5HIn2BvhAGyxZws0j2YR-6" value="Ver fila de orçamentos" style="ellipse;whiteSpace=wrap;html=1;" parent="1" vertex="1">
          <mxGeometry x="200" y="339" width="140" height="50" as="geometry" />
        </mxCell>
        <mxCell id="5HIn2BvhAGyxZws0j2YR-7" value="Cadastrar Cliente" style="ellipse;whiteSpace=wrap;html=1;" parent="1" vertex="1">
          <mxGeometry x="200" y="413" width="140" height="50" as="geometry" />
        </mxCell>
        <mxCell id="5HIn2BvhAGyxZws0j2YR-8" value="Cadastrar Procedimento" style="ellipse;whiteSpace=wrap;html=1;" parent="1" vertex="1">
          <mxGeometry x="200" y="487" width="140" height="40" as="geometry" />
        </mxCell>
        <mxCell id="5HIn2BvhAGyxZws0j2YR-9" value="Cadastrar Médico" style="ellipse;whiteSpace=wrap;html=1;" parent="1" vertex="1">
          <mxGeometry x="200" y="550" width="140" height="50" as="geometry" />
        </mxCell>
        <mxCell id="5HIn2BvhAGyxZws0j2YR-10" value="Cadastrar Opme" style="ellipse;whiteSpace=wrap;html=1;" parent="1" vertex="1">
          <mxGeometry x="200" y="624" width="140" height="50" as="geometry" />
        </mxCell>
        <mxCell id="5HIn2BvhAGyxZws0j2YR-11" style="edgeStyle=orthogonalEdgeStyle;rounded=0;orthogonalLoop=1;jettySize=auto;html=1;entryX=0;entryY=0.5;entryDx=0;entryDy=0;strokeColor=default;exitX=1;exitY=0.3333333333333333;exitDx=0;exitDy=0;exitPerimeter=0;endArrow=none;endFill=0;" parent="1" source="5HIn2BvhAGyxZws0j2YR-1" target="5HIn2BvhAGyxZws0j2YR-4" edge="1">
          <mxGeometry relative="1" as="geometry">
            <mxPoint x="150" y="459" as="sourcePoint" />
          </mxGeometry>
        </mxCell>
        <mxCell id="5HIn2BvhAGyxZws0j2YR-18" value="Fechar Orçamento" style="ellipse;whiteSpace=wrap;html=1;" parent="1" vertex="1">
          <mxGeometry x="200" y="268" width="140" height="45" as="geometry" />
        </mxCell>
        <mxCell id="5HIn2BvhAGyxZws0j2YR-28" style="edgeStyle=orthogonalEdgeStyle;rounded=0;orthogonalLoop=1;jettySize=auto;html=1;exitX=0.5;exitY=0.5;exitDx=0;exitDy=0;exitPerimeter=0;entryX=0;entryY=0.5;entryDx=0;entryDy=0;endArrow=none;endFill=0;" parent="1" source="5HIn2BvhAGyxZws0j2YR-20" target="5HIn2BvhAGyxZws0j2YR-22" edge="1">
          <mxGeometry relative="1" as="geometry" />
        </mxCell>
        <mxCell id="5HIn2BvhAGyxZws0j2YR-30" style="edgeStyle=orthogonalEdgeStyle;rounded=0;orthogonalLoop=1;jettySize=auto;html=1;exitX=0.5;exitY=0.5;exitDx=0;exitDy=0;exitPerimeter=0;entryX=0;entryY=0.5;entryDx=0;entryDy=0;endArrow=none;endFill=0;" parent="1" source="5HIn2BvhAGyxZws0j2YR-20" target="5HIn2BvhAGyxZws0j2YR-27" edge="1">
          <mxGeometry relative="1" as="geometry" />
        </mxCell>
        <mxCell id="5HIn2BvhAGyxZws0j2YR-35" style="edgeStyle=orthogonalEdgeStyle;rounded=0;orthogonalLoop=1;jettySize=auto;html=1;exitX=0.5;exitY=0;exitDx=0;exitDy=0;exitPerimeter=0;endArrow=block;endFill=0;" parent="1" source="5HIn2BvhAGyxZws0j2YR-20" target="5HIn2BvhAGyxZws0j2YR-1" edge="1">
          <mxGeometry relative="1" as="geometry">
            <mxPoint x="60" y="369" as="targetPoint" />
          </mxGeometry>
        </mxCell>
        <mxCell id="5HIn2BvhAGyxZws0j2YR-37" style="edgeStyle=orthogonalEdgeStyle;rounded=0;orthogonalLoop=1;jettySize=auto;html=1;exitX=0.5;exitY=0.5;exitDx=0;exitDy=0;exitPerimeter=0;entryX=0;entryY=0.5;entryDx=0;entryDy=0;endArrow=none;endFill=0;" parent="1" source="5HIn2BvhAGyxZws0j2YR-20" target="5HIn2BvhAGyxZws0j2YR-36" edge="1">
          <mxGeometry relative="1" as="geometry" />
        </mxCell>
        <mxCell id="5HIn2BvhAGyxZws0j2YR-20" value="Administrator" style="shape=umlActor;verticalLabelPosition=bottom;verticalAlign=top;html=1;" parent="1" vertex="1">
          <mxGeometry x="50" y="799" width="30" height="60" as="geometry" />
        </mxCell>
        <mxCell id="5HIn2BvhAGyxZws0j2YR-22" value="Gerar Relatório" style="ellipse;whiteSpace=wrap;html=1;" parent="1" vertex="1">
          <mxGeometry x="164" y="789" width="140" height="40" as="geometry" />
        </mxCell>
        <mxCell id="5HIn2BvhAGyxZws0j2YR-23" value="Visualizar Dashboard Anual" style="ellipse;whiteSpace=wrap;html=1;" parent="1" vertex="1">
          <mxGeometry x="164" y="849" width="140" height="60" as="geometry" />
        </mxCell>
        <mxCell id="5HIn2BvhAGyxZws0j2YR-25" value="Confirmar Preparação de Cirurgia OK" style="ellipse;whiteSpace=wrap;html=1;" parent="1" vertex="1">
          <mxGeometry x="190" y="34" width="170" height="60" as="geometry" />
        </mxCell>
        <mxCell id="5HIn2BvhAGyxZws0j2YR-27" value="Visualizar Faturamento Semanal" style="ellipse;whiteSpace=wrap;html=1;" parent="1" vertex="1">
          <mxGeometry x="164" y="929" width="140" height="60" as="geometry" />
        </mxCell>
        <mxCell id="5HIn2BvhAGyxZws0j2YR-29" style="edgeStyle=orthogonalEdgeStyle;rounded=0;orthogonalLoop=1;jettySize=auto;html=1;exitX=0.5;exitY=0.5;exitDx=0;exitDy=0;exitPerimeter=0;entryX=0.007;entryY=0.35;entryDx=0;entryDy=0;entryPerimeter=0;endArrow=none;endFill=0;" parent="1" source="5HIn2BvhAGyxZws0j2YR-20" target="5HIn2BvhAGyxZws0j2YR-23" edge="1">
          <mxGeometry relative="1" as="geometry" />
        </mxCell>
        <mxCell id="5HIn2BvhAGyxZws0j2YR-34" style="edgeStyle=orthogonalEdgeStyle;rounded=0;orthogonalLoop=1;jettySize=auto;html=1;exitX=0.5;exitY=0.5;exitDx=0;exitDy=0;exitPerimeter=0;endArrow=none;endFill=0;" parent="1" source="5HIn2BvhAGyxZws0j2YR-31" target="5HIn2BvhAGyxZws0j2YR-32" edge="1">
          <mxGeometry relative="1" as="geometry" />
        </mxCell>
        <mxCell id="uVIDQv2vTQbWgJyryutx-4" style="edgeStyle=orthogonalEdgeStyle;rounded=0;orthogonalLoop=1;jettySize=auto;html=1;exitX=0.5;exitY=0.5;exitDx=0;exitDy=0;exitPerimeter=0;entryX=1;entryY=0.5;entryDx=0;entryDy=0;endArrow=none;endFill=0;" parent="1" source="5HIn2BvhAGyxZws0j2YR-31" target="5HIn2BvhAGyxZws0j2YR-4" edge="1">
          <mxGeometry relative="1" as="geometry">
            <Array as="points">
              <mxPoint x="660" y="272" />
              <mxPoint x="660" y="143" />
            </Array>
          </mxGeometry>
        </mxCell>
        <mxCell id="5HIn2BvhAGyxZws0j2YR-31" value="Caixa" style="shape=umlActor;verticalLabelPosition=bottom;verticalAlign=top;html=1;" parent="1" vertex="1">
          <mxGeometry x="731" y="242" width="30" height="60" as="geometry" />
        </mxCell>
        <mxCell id="5HIn2BvhAGyxZws0j2YR-33" value="&amp;lt;&amp;lt; includes &amp;gt;&amp;gt;" style="edgeStyle=orthogonalEdgeStyle;rounded=0;orthogonalLoop=1;jettySize=auto;html=1;exitX=0;exitY=0.5;exitDx=0;exitDy=0;entryX=0.5;entryY=0;entryDx=0;entryDy=0;dashed=1;" parent="1" source="5HIn2BvhAGyxZws0j2YR-32" target="5HIn2BvhAGyxZws0j2YR-18" edge="1">
          <mxGeometry relative="1" as="geometry">
            <Array as="points">
              <mxPoint x="450" y="250" />
              <mxPoint x="270" y="250" />
            </Array>
          </mxGeometry>
        </mxCell>
        <mxCell id="5HIn2BvhAGyxZws0j2YR-32" value="Confirmar Recebimento de Valores" style="ellipse;whiteSpace=wrap;html=1;" parent="1" vertex="1">
          <mxGeometry x="450" y="205" width="140" height="60" as="geometry" />
        </mxCell>
        <mxCell id="5HIn2BvhAGyxZws0j2YR-36" value="Cadastrar Usuário" style="ellipse;whiteSpace=wrap;html=1;" parent="1" vertex="1">
          <mxGeometry x="164" y="719" width="140" height="50" as="geometry" />
        </mxCell>
        <mxCell id="uVIDQv2vTQbWgJyryutx-6" value="Caixa" style="ellipse;whiteSpace=wrap;html=1;" parent="1" vertex="1">
          <mxGeometry x="350" y="689.5" width="80" height="30" as="geometry" />
        </mxCell>
        <mxCell id="uVIDQv2vTQbWgJyryutx-7" value="Usuário" style="ellipse;whiteSpace=wrap;html=1;" parent="1" vertex="1">
          <mxGeometry x="350" y="729.5" width="80" height="30" as="geometry" />
        </mxCell>
        <mxCell id="uVIDQv2vTQbWgJyryutx-8" value="Administrator" style="ellipse;whiteSpace=wrap;html=1;" parent="1" vertex="1">
          <mxGeometry x="350" y="768.5" width="80" height="30" as="geometry" />
        </mxCell>
        <mxCell id="uVIDQv2vTQbWgJyryutx-9" style="rounded=0;orthogonalLoop=1;jettySize=auto;html=1;exitX=0;exitY=0.5;exitDx=0;exitDy=0;endArrow=block;endFill=0;entryX=1;entryY=0.5;entryDx=0;entryDy=0;" parent="1" source="uVIDQv2vTQbWgJyryutx-8" target="5HIn2BvhAGyxZws0j2YR-36" edge="1">
          <mxGeometry relative="1" as="geometry">
            <mxPoint x="500" y="879" as="sourcePoint" />
            <mxPoint x="500" y="419" as="targetPoint" />
          </mxGeometry>
        </mxCell>
        <mxCell id="uVIDQv2vTQbWgJyryutx-10" style="rounded=0;orthogonalLoop=1;jettySize=auto;html=1;exitX=0;exitY=0.5;exitDx=0;exitDy=0;endArrow=block;endFill=0;entryX=1;entryY=0.5;entryDx=0;entryDy=0;" parent="1" source="uVIDQv2vTQbWgJyryutx-7" target="5HIn2BvhAGyxZws0j2YR-36" edge="1">
          <mxGeometry relative="1" as="geometry">
            <mxPoint x="360" y="807" as="sourcePoint" />
            <mxPoint x="314" y="767" as="targetPoint" />
          </mxGeometry>
        </mxCell>
        <mxCell id="uVIDQv2vTQbWgJyryutx-11" style="rounded=0;orthogonalLoop=1;jettySize=auto;html=1;exitX=0;exitY=0.5;exitDx=0;exitDy=0;endArrow=block;endFill=0;entryX=1;entryY=0.5;entryDx=0;entryDy=0;" parent="1" source="uVIDQv2vTQbWgJyryutx-6" target="5HIn2BvhAGyxZws0j2YR-36" edge="1">
          <mxGeometry relative="1" as="geometry">
            <mxPoint x="370" y="831" as="sourcePoint" />
            <mxPoint x="310" y="740" as="targetPoint" />
          </mxGeometry>
        </mxCell>
        <mxCell id="uVIDQv2vTQbWgJyryutx-14" value="Convênio sem coparticipação" style="ellipse;whiteSpace=wrap;html=1;" parent="1" vertex="1">
          <mxGeometry x="400" y="300" width="110" height="41" as="geometry" />
        </mxCell>
        <mxCell id="uVIDQv2vTQbWgJyryutx-15" value="Crédito, Débito, Dinheiro, Cheque" style="ellipse;whiteSpace=wrap;html=1;" parent="1" vertex="1">
          <mxGeometry x="560" y="413.5" width="110" height="54" as="geometry" />
        </mxCell>
        <mxCell id="uVIDQv2vTQbWgJyryutx-18" value="Convênio com coparticipação" style="ellipse;whiteSpace=wrap;html=1;" parent="1" vertex="1">
          <mxGeometry x="400" y="356" width="110" height="41" as="geometry" />
        </mxCell>
        <mxCell id="uVIDQv2vTQbWgJyryutx-19" value="Demais pagamentos" style="ellipse;whiteSpace=wrap;html=1;" parent="1" vertex="1">
          <mxGeometry x="400" y="420" width="110" height="41" as="geometry" />
        </mxCell>
        <mxCell id="uVIDQv2vTQbWgJyryutx-20" style="rounded=0;orthogonalLoop=1;jettySize=auto;html=1;endArrow=block;endFill=0;entryX=1;entryY=0.5;entryDx=0;entryDy=0;exitX=0;exitY=0.5;exitDx=0;exitDy=0;" parent="1" source="uVIDQv2vTQbWgJyryutx-14" target="5HIn2BvhAGyxZws0j2YR-18" edge="1">
          <mxGeometry relative="1" as="geometry">
            <mxPoint x="469.99911468812866" y="698.5" as="sourcePoint" />
            <mxPoint x="555.48" y="451.5" as="targetPoint" />
          </mxGeometry>
        </mxCell>
        <mxCell id="uVIDQv2vTQbWgJyryutx-21" style="rounded=0;orthogonalLoop=1;jettySize=auto;html=1;endArrow=block;endFill=0;entryX=0.943;entryY=0.7;entryDx=0;entryDy=0;exitX=0;exitY=0.5;exitDx=0;exitDy=0;entryPerimeter=0;" parent="1" source="uVIDQv2vTQbWgJyryutx-18" target="5HIn2BvhAGyxZws0j2YR-18" edge="1">
          <mxGeometry relative="1" as="geometry">
            <mxPoint x="410" y="342" as="sourcePoint" />
            <mxPoint x="350" y="311" as="targetPoint" />
          </mxGeometry>
        </mxCell>
        <mxCell id="uVIDQv2vTQbWgJyryutx-22" style="rounded=0;orthogonalLoop=1;jettySize=auto;html=1;endArrow=block;endFill=0;entryX=1;entryY=1;entryDx=0;entryDy=0;exitX=0;exitY=0.5;exitDx=0;exitDy=0;" parent="1" source="uVIDQv2vTQbWgJyryutx-19" target="5HIn2BvhAGyxZws0j2YR-18" edge="1">
          <mxGeometry relative="1" as="geometry">
            <mxPoint x="403" y="398" as="sourcePoint" />
            <mxPoint x="335" y="321" as="targetPoint" />
          </mxGeometry>
        </mxCell>
        <mxCell id="mw2Yw8n2kZ2VjbITyPP--1" style="rounded=0;orthogonalLoop=1;jettySize=auto;html=1;endArrow=block;endFill=0;entryX=1;entryY=0.5;entryDx=0;entryDy=0;" edge="1" parent="1" source="uVIDQv2vTQbWgJyryutx-15" target="uVIDQv2vTQbWgJyryutx-19">
          <mxGeometry relative="1" as="geometry">
            <mxPoint x="641" y="585" as="sourcePoint" />
            <mxPoint x="560" y="452" as="targetPoint" />
          </mxGeometry>
        </mxCell>
        <mxCell id="mw2Yw8n2kZ2VjbITyPP--4" value="Receber Pagamento" style="ellipse;whiteSpace=wrap;html=1;" vertex="1" parent="1">
          <mxGeometry x="530" y="320" width="140" height="40" as="geometry" />
        </mxCell>
        <mxCell id="mw2Yw8n2kZ2VjbITyPP--5" style="rounded=0;orthogonalLoop=1;jettySize=auto;html=1;endArrow=block;endFill=0;entryX=1;entryY=0.5;entryDx=0;entryDy=0;" edge="1" parent="1" target="uVIDQv2vTQbWgJyryutx-18">
          <mxGeometry relative="1" as="geometry">
            <mxPoint x="560" y="440" as="sourcePoint" />
            <mxPoint x="329" y="347" as="targetPoint" />
          </mxGeometry>
        </mxCell>
        <mxCell id="mw2Yw8n2kZ2VjbITyPP--6" style="rounded=0;orthogonalLoop=1;jettySize=auto;html=1;endArrow=block;endFill=0;exitX=0.5;exitY=0;exitDx=0;exitDy=0;" edge="1" parent="1" source="uVIDQv2vTQbWgJyryutx-15" target="mw2Yw8n2kZ2VjbITyPP--4">
          <mxGeometry relative="1" as="geometry">
            <mxPoint x="570" y="450" as="sourcePoint" />
            <mxPoint x="520" y="387" as="targetPoint" />
          </mxGeometry>
        </mxCell>
        <mxCell id="mw2Yw8n2kZ2VjbITyPP--7" value="&amp;lt;&amp;lt; includes &amp;gt;&amp;gt;" style="edgeStyle=orthogonalEdgeStyle;rounded=0;orthogonalLoop=1;jettySize=auto;html=1;exitX=0.5;exitY=1;exitDx=0;exitDy=0;entryX=0.5;entryY=0;entryDx=0;entryDy=0;dashed=1;curved=1;" edge="1" parent="1" source="5HIn2BvhAGyxZws0j2YR-32" target="mw2Yw8n2kZ2VjbITyPP--4">
          <mxGeometry relative="1" as="geometry">
            <mxPoint x="460" y="255" as="sourcePoint" />
            <mxPoint x="280" y="285" as="targetPoint" />
          </mxGeometry>
        </mxCell>
      </root>
    </mxGraphModel>
  </diagram>
</mxfile>
